<?xml version="1.0" standalone="no"?>
<!DOCTYPE svg PUBLIC "-//W3C//DTD SVG 20010904//EN"
 "http://www.w3.org/TR/2001/REC-SVG-20010904/DTD/svg10.dtd">
<svg version="1.0" xmlns="http://www.w3.org/2000/svg"
 width="512.000000pt" height="512.000000pt" viewBox="0 0 512.000000 512.000000"
 preserveAspectRatio="xMidYMid meet">

<g transform="translate(0.000000,512.000000) scale(0.100000,-0.100000)"
fill="#000000" stroke="none">
<path d="M2320 4839 c-431 -44 -895 -240 -1225 -519 -437 -368 -706 -847 -801
-1425 -26 -153 -26 -503 -1 -665 76 -489 284 -909 622 -1259 356 -368 801
-597 1315 -678 160 -24 500 -24 660 0 511 80 957 309 1310 673 342 352 550
772 627 1264 25 162 25 512 -1 665 -83 507 -299 936 -647 1284 -486 487 -1170
730 -1859 660z m422 -314 c126 -7 283 -40 436 -91 761 -250 1298 -941 1351
-1738 60 -904 -494 -1728 -1351 -2010 -1037 -342 -2152 220 -2492 1256 -55
166 -84 313 -95 485 -50 746 316 1442 964 1833 296 179 724 291 1045 274 30
-2 94 -6 142 -9z"/>
<path d="M1412 2797 c-18 -5 -53 -28 -78 -50 -135 -118 -122 -315 28 -417 41
-28 61 -35 114 -38 95 -6 148 12 210 72 53 52 84 121 84 186 0 92 -68 196
-154 236 -56 26 -143 31 -204 11z"/>
<path d="M2449 2782 c-60 -31 -113 -93 -129 -150 -50 -180 69 -342 250 -342
152 0 259 108 260 261 0 151 -108 258 -261 259 -54 0 -77 -5 -120 -28z"/>
<path d="M3525 2786 c-56 -25 -107 -77 -131 -134 -21 -48 -22 -156 -2 -203 73
-168 302 -214 430 -87 48 48 71 102 76 176 4 55 0 71 -27 126 -18 37 -46 75
-66 90 -79 60 -192 73 -280 32z"/>
</g>
</svg>
